<?xml version="1.0" encoding="UTF-8" standalone="no"?><svg xmlns="http://www.w3.org/2000/svg" width="1364.77" height="923.39" viewBox="0 0 1364.77 923.39"><defs><style>.f22e069c-93c8-4466-a5bb-9b2c45eba566{fill:#1a1a1a}.\36 2efbf2f-879f-4d5b-98f5-984d621743c7{fill:#242629}.f05dc078-6bcc-44c6-a1d2-6f9b5ad643f5{fill:#0d0d0d}.adcb31bb-20f2-4f6d-b468-76342b85a356{fill:#121315}.d36f7b64-2e00-4010-b7a2-22b10d3bdd63{fill:#262626}.\37 db4f9cd-ccaf-49e3-b8c5-6caf459d68cf{fill:#0f0f13}.\33 26ee0eb-dc59-4c20-a119-c90052b01ae0{fill:#282833}.\32 85936bb-ea95-4625-b55b-93b2d9ba4958{clip-path:url(#a9b1cd81-11ab-4261-bcee-1612c9762ca5)}.ccd5b4f2-afcb-43e3-a75d-8cc61c7b3f02{fill:#030303}.\34 76537ef-026a-49aa-9408-0ba65431ad69{fill:#fff;fill-rule:evenodd}.\38 e6e45bf-bca7-4a75-9f21-344e97bf944c{fill:none}.\32 6758d3b-42f4-4e7d-bca5-57705ac7c204{fill:#181713}.a7d749f3-bfce-462d-aa86-b93a64a78543{fill:#202021}.\30 28ee0b8-3de6-47c4-9104-fc2a751c7c13{fill:#313133}</style><clipPath id="a9b1cd81-11ab-4261-bcee-1612c9762ca5"><path class="f22e069c-93c8-4466-a5bb-9b2c45eba566" d="M980.75 378.54c-68.75 19.39-210.24 55.6-296 69-77.35 12.09-134.25 38.33-160.56 64.64-37.24 37.26-47.19 107.4-45.67 177.69 1.84 86.67 24.62 173.57 78 199.34 96.67 46.67 140 32 140 32s252.67-90.67 315.33-112.67 173-79 239.84-102.81 88.16-65.86 100.82-147.86 8.67-158 8.67-201.33c0-37-14.17-64.67-47.5-74.67s-32-20.5-79.17 3.85c-51.71 26.7-172.97 70.03-253.76 92.82z"/></clipPath></defs><title>gearvr</title><g id="718e7e94-2abf-4d33-9497-44e34d5efff8" data-name="Layer 2"><g id="7c124c16-f62b-4bae-b7fb-82e001a10107" data-name="Layer 1"><path d="M895.19 306.7s-2.94.25-1.52 12.37 28.42-2.71 28.42-2.71l-7.83-10.83z"/><path class="62efbf2f-879f-4d5b-98f5-984d621743c7" d="M613.06 50.08s9.61-8.68 26.68-1.74 132.35 51.21 132.35 51.21 16.81 5.36 12.81 21.45c-3.64 14.62-17.54 57.33-23.63 76.6-1 3.1-15.94 4.09-22.08 1.46l-118.45-50.82c-15.54-6.66-23-14.48-21.37-22.35z"/><path d="M719.18 84.87l85.29 31.67 185.3 81.83-2.52 62.5-65.15-53.08-83.9 65.75-177.14-145.31 58.12-43.36z"/><path d="M1000.93 273.29l7.58-2.49-1.16-47.8s3.46-17.54-10.46-22.58c-11.28-4.09-9.54.58-9.54.58s.73.87 6 8.6c9.33 13.94 7.58 63.69 7.58 63.69z"/><path class="f05dc078-6bcc-44c6-a1d2-6f9b5ad643f5" d="M988.55 198.92l-5.53 2.45v71.92h17.91l3.75-31.92-3.5-33.33-12.63-9.12z"/><path class="adcb31bb-20f2-4f6d-b468-76342b85a356" d="M73.62 53.49c31.88-22 120.6-70.42 326.9-47.45C679 37 930 188.7 930 188.7l58.83 23.21-1.06 66.09-133.25 41s-207.5-143.5-448-174.5-337.33 49.28-355.17 95C15 219.59 21.52 145 21.52 145l1.93-24.59s18.3-44.89 50.17-66.92z"/><path class="d36f7b64-2e00-4010-b7a2-22b10d3bdd63" d="M936.52 184.54c-9.67-14.67-24.67-14.67-44.67-1.33s-32.67 25-43.33 51 73.58 13 73.58 13l22.75-33-2.33-24.67z"/><path class="d36f7b64-2e00-4010-b7a2-22b10d3bdd63" d="M881.4 251c-14.3 0-28-1.72-32.61-7.63-2-2.53-2.24-5.67-.74-9.34 10.6-25.85 23-37.53 43.52-51.23 11.95-8 22.19-11.16 30.45-9.49 5.87 1.19 10.88 4.86 14.87 10.9l6.1 5.08 2.37 25.05-23 33.33h-.21A305.24 305.24 0 0 1 881.4 251zm36.17-77.12c-7.18 0-15.72 3.27-25.44 9.75-20.37 13.58-32.64 25.17-43.15 50.77-1.38 3.36-1.18 6.09.6 8.34 10.21 13 68.24 4.6 72.24 4l22.52-32.67-2.34-24.28-5.94-5c-3.85-5.85-8.66-9.39-14.28-10.53a21.36 21.36 0 0 0-4.21-.39z"/><path class="d36f7b64-2e00-4010-b7a2-22b10d3bdd63" d="M907.52 188.7s-25 45.83-152 75.5c-100 23.35-223.5 30.33-316 40.33S298.19 335 264.75 368.39s566.76-67.93 566.76-67.93L942 254.54z"/><path class="d36f7b64-2e00-4010-b7a2-22b10d3bdd63" d="M285.47 375.65c-13.62 0-21-1.28-22.32-3.83-.57-1.11-.15-2.38 1.25-3.78 35.42-35.42 87.78-54.56 175.06-64 22.31-2.41 46.24-4.63 71.57-7 79-7.33 168.55-15.63 244.37-33.34 65.45-15.29 103.21-34.94 123.36-48.73 21.82-14.97 28.24-26.39 28.32-26.5l.45-.82 35.13 67.14L831.6 301c-1.39.23-140.65 23.72-279.56 44.12-81.59 12-147.09 20.57-194.69 25.52-32.35 3.36-56.24 5.01-71.88 5.01zm622-185.92c-1.8 2.84-9.09 13-28.06 26-20.22 13.86-58.11 33.61-123.79 49-75.88 17.73-165.47 26-244.5 33.36-25.33 2.35-49.25 4.57-71.56 7-87 9.41-139.22 28.46-174.46 63.71-1.06 1.06-1.42 1.94-1.07 2.62 3.28 6.36 55.88 6.79 287.85-27.28 137.84-20.24 276-43.52 279.48-44.1l109.88-45.7z"/><path d="M243.06 401.26s20.79-52.73 83.45-72.73 252.67-26 300.67-34 141.33-18 195.33-36.67 70.83-30.83 83.17-39 31.67-22.5 26.17-35.33c22.17 3.17 1 39.5 1 39.5l-304.3 161.5z"/><path class="7db4f9cd-ccaf-49e3-b8c5-6caf459d68cf" d="M365.5 771.93A224.49 224.49 0 0 1 318.89 753c-23.52-12.69-55.35-35.42-73.47-71.61-21.42-42.87-30.48-106.45-24.13-170.08 6.11-61.22 25.6-112.42 50.86-133.63 47.21-39.63 100.5-45.32 181.17-53.94 10.91-1.16 22.18-2.37 34-3.72 26.65-3 54-5.69 80.39-8.25 71.7-7 145.85-14.15 211.79-29.78 87.18-20.67 140.5-51.56 154.66-73 8-12.17 6.9-19.41 5.2-22.95h3.8l8 63.78 8.2 1.46 32.76 26.9z"/><path class="326ee0eb-dc59-4c20-a119-c90052b01ae0" d="M941.87 187.54l7.67 61.37.27 2.19 2.18.39 6.73 1.2 31 25.47-624.56 492.13a225.23 225.23 0 0 1-45.64-18.64 199.17 199.17 0 0 1-39.52-27.7 148.63 148.63 0 0 1-33.24-43.22c-11.11-22.2-18.8-49.09-22.85-79.94a395.27 395.27 0 0 1-1.13-89.32c2.94-29.44 9-57.17 17.6-80.19 8.85-23.76 20.17-41.89 32.73-52.44 46.86-39.34 100-45 180.36-53.59 10.91-1.17 22.19-2.37 34-3.72 26.64-3 54-5.69 80.37-8.25 71.75-7 145.95-14.16 212-29.81 40.91-9.7 77.74-22.55 106.49-37.16C910.62 234 928 221 935.44 209.81c7-10.67 7.3-17.9 6.08-22.27h.35m2.65-3h-8s7.76 6.45-3.58 23.62c-12.8 19.39-63.76 51-153.76 72.38s-192.67 26.67-292 38-162 12.67-216 58-74 211.83-27.1 305.53c35.44 70.8 121.77 91.5 121.77 91.5L994.52 278.2 960 249.87l-7.5-1.33-8-64z"/><path d="M259.18 425.7s3.93-25.51-51.33-56.33-176-156.83-182-208.17 32-94.09 32-94.09-42 34.76-42 96.76V327.2l227.21 149.39z"/><path class="f05dc078-6bcc-44c6-a1d2-6f9b5ad643f5" d="M234.16 414.82s13.38-21.62 29.7-17.79 29.66 7 28.82 25.5 2.67 44.83 2.67 44.83l-14.9 4.73z"/><path d="M234.16 414.82s12.61-14.18 24.11-11.18 13.77 5.2 18.75 7.89c10.88 5.88 3.38 48.28 9 67.52s-6.5 159-6.5 159-1-13-37.5-24.5-35-15-42.5-27 34.64-171.73 34.64-171.73z"/><path d="M1182.27 242.54c72.83 16.67 106.74 20 106.74 30.54 0 20-609.28 642.88-661 640s-119-35.56-227.46-103.56S271 677.71 264.52 577.2C258 477 299 395.54 421.18 387.87c118.85-7.46 300.67-35.33 339.67-45.33s37.08-11.33 53.42-6.67 102.75-22 102.75-22l-21.81-6.19a.51.51 0 0 1 0-1c8.12-2.46 44.37-13.93 78.32-32.17 36-19.33 48.32-39.11 48.32-39.11a31.4 31.4 0 0 1 3.15-10.7c2.83-5.67 5.67-5.83 5.67-5.83s77.66 6.75 151.6 23.67z"/><path d="M628.37 913.55H628c-49.31-2.78-113.15-31.84-227.7-103.63C348 777.11 314.15 744 293.85 705.77 272.33 665.2 266.79 620 264 577.24c-3.8-58.62 9.23-106.71 37.69-139 26.77-30.42 67-47.52 119.44-50.82 115.87-7.32 298.77-34.9 339.6-45.37 6.62-1.7 12.16-3.17 16.61-4.36 22.5-6 23.37-6.22 37.07-2.31 14.78 4.22 88.88-17.88 100.84-21.5l-20.17-5.72a1 1 0 0 1 0-1.94c7.06-2.14 44-13.76 78.23-32.13s47.06-37.3 48.07-38.84a32 32 0 0 1 3.22-10.78c2.93-5.86 6-6.1 6.08-6.11.85.07 78.6 6.95 151.72 23.68 19.26 4.41 36.14 8 49.71 10.8 39.42 8.28 57.42 12.06 57.42 20.22 0 13.76-275 298.86-467.73 481C744.66 827 648.78 913.55 628.37 913.55zM801 333.79c-5 0-10.79 1.53-23.37 4.88-4.45 1.19-10 2.66-16.62 4.36-40.85 10.48-223.91 38.08-339.76 45.35-52.21 3.28-92.16 20.26-118.76 50.48-28.28 32.14-41.23 80-37.44 138.33 6.73 103.66 28.76 164.8 135.8 231.88C515.21 880.75 578.92 909.76 628 912.54h.36c15.87 0 82.45-55 192.68-159.17 205.55-194.27 467.42-467.89 467.42-480.3 0-7.35-18.92-11.32-56.62-19.25-13.57-2.85-30.46-6.4-49.72-10.81-73-16.71-150.71-23.59-151.52-23.66 0 0-2.55.31-5.18 5.56a31.19 31.19 0 0 0-3.13 10.53v.12l-.07.11c-.12.2-12.8 20.11-48.51 39.29-34.28 18.41-71.33 30.06-78.41 32.2l23.44 6.67-1.61.5c-3.53 1.09-86.75 26.66-103 22-5.83-1.64-9.29-2.54-13.13-2.54z"/><path d="M854.52 335.79l68.28-18.56 20.88-4.69 34.34 14.16-137.5 42.67 2-30.5 12-3.08z"/><path class="f22e069c-93c8-4466-a5bb-9b2c45eba566" d="M980.75 378.54c-68.75 19.39-210.24 55.6-296 69-77.35 12.09-134.25 38.33-160.56 64.64-37.24 37.26-47.19 107.4-45.67 177.69 1.84 86.67 24.62 173.57 78 199.34 96.67 46.67 140 32 140 32s252.67-90.67 315.33-112.67 173-79 239.84-102.81 88.16-65.86 100.82-147.86 8.67-158 8.67-201.33c0-37-14.17-64.67-47.5-74.67s-32-20.5-79.17 3.85c-51.71 26.7-172.97 70.03-253.76 92.82z"/><g class="285936bb-ea95-4625-b55b-93b2d9ba4958"><path class="f05dc078-6bcc-44c6-a1d2-6f9b5ad643f5" d="M1364.77 416.79s-9 12-21.25 16.25-30.5 3.51-30.5 3.51l3.5 107.49s19.25-1.25 30.75-10 14.52-13.75 14.52-13.75z"/></g><path class="f05dc078-6bcc-44c6-a1d2-6f9b5ad643f5" d="M660.85 523.2s-46.33 8-68.33 12-33.31 12.57-40.67 35.67c-7 22.06-15.15 41.89-4.95 61.33C553.52 644.8 563 644 563 644l7 157s-19.5-2-19.5 12 10.5 61.5 38 79 43.22 17.8 64 16 44-12.5 44-12.5l-15-366z"/><path class="ccd5b4f2-afcb-43e3-a75d-8cc61c7b3f02" d="M1278.63 476.65V452.2l44.88-9.53s11 1.21 11 6.53-3.81 21-3.81 21z"/><path class="7db4f9cd-ccaf-49e3-b8c5-6caf459d68cf" d="M695.79 914.46c-37.6 0-40.52-63-40.52-82.27 0-.36.58-38.58.58-47.65 0-6.3 15.9-8.3 21.47-8.5l1.48-.05-2.31-111.81-17.2-1.67a5.42 5.42 0 0 1-4.91-5.38l-.38-70.85c1.69-31.15 6.7-52.28 16.24-68.42 11-18.66 28.9-30.94 54.63-37.53L1288.1 305.4a58.88 58.88 0 0 1 18.42-3.44c16.52 0 26.75 10.84 30.39 32.21 1.83 10.74.6 76.09.18 95.86a8.41 8.41 0 0 1-5.22 7.6l-39.23 16.09a25 25 0 0 0-15.51 22.92l-.78 90.38a5.15 5.15 0 0 0 1.41 3.77 5.57 5.57 0 0 0 4 1.51 9.52 9.52 0 0 0 4.88-1.46l45.67-26.12c-.56 10.67-2.59 49-2.86 53-1 15.12-2.12 32.25-6 43.24-9.47 26.58-27.47 46.12-50.7 55l-562.2 215.78a45.84 45.84 0 0 1-14.76 2.72z"/><path class="326ee0eb-dc59-4c20-a119-c90052b01ae0" d="M1306.51 303.47c15.9 0 25.36 10.13 28.91 31 1.81 10.61.58 75.84.16 95.58a6.9 6.9 0 0 1-4.29 6.24l-39.23 16.09a26.45 26.45 0 0 0-16.44 24.29l-.78 90.38a6.57 6.57 0 0 0 1.84 4.84 7.05 7.05 0 0 0 5.08 2 11 11 0 0 0 5.62-1.66l43.29-24.76c-.7 13.32-2.46 46.49-2.71 50.28-1 15-2.11 32-6 42.84-9.32 26.16-27 45.39-49.83 54.14L710.06 910.32a44.39 44.39 0 0 1-14.27 2.68c-36.2 0-39-61.82-39-80.72 0-.38.58-38.61.58-47.7 0-4.08 11.63-6.69 20-7l3-.11-.06-3-2.25-109-.06-2.67-2.65-.26-15.92-1.54a3.93 3.93 0 0 1-3.56-3.9v-7l-.32-63.76c1.68-30.93 6.63-51.83 16-67.74 10.82-18.3 28.39-30.36 53.71-36.84h.14l563.13-174.9h.06a57.33 57.33 0 0 1 17.91-3.35m0-3a59.93 59.93 0 0 0-18.86 3.51L724.52 478.87c-55.14 14.12-69 52-72 107.42l.32 63.84v7a6.94 6.94 0 0 0 6.27 6.87l15.89 1.54 2.25 109s-22.92.83-22.92 10-.58 47.65-.58 47.65c0 27.34 5.33 83.77 42 83.77a47.14 47.14 0 0 0 15.3-2.82l562.18-215.69c25.39-9.74 42.79-31.26 51.58-55.93 3.9-10.94 5-27.21 6.12-43.65.32-4.8 3-55.81 3-55.81l-48.1 27.51a8 8 0 0 1-4.1 1.24c-2.18 0-3.94-1.19-3.92-3.77l.78-90.38a23.5 23.5 0 0 1 14.58-21.54l39.27-16.12a9.9 9.9 0 0 0 6.15-9c.44-20.84 1.64-85.32-.2-96.14-3.51-20.6-13.29-33.46-31.87-33.46z"/><path d="M1323.52 442.68s11.34-1.14 11.34 9.53-2.67 76-2.67 85.67-1.17 16.5-28.83 28.78c-25 11.08-25.5.39-25.5.39s.78-76.27.78-90.38c0-15.61 22.61-7.83 35.3-12 32.47-10.54 16.99-23.28 9.58-21.99z"/><path class="476537ef-026a-49aa-9408-0ba65431ad69" d="M1042.38 436.77a12.06 12.06 0 0 0-2.17-.88 11.86 11.86 0 0 1-3.11-1.43 2.65 2.65 0 0 1-.61-2.61 1.75 1.75 0 0 1 1.17-1.34 1.17 1.17 0 0 1 1.44 1.21l.17 2.13 4.65-1.45-.26-3.11s-.05-5.22-5.92-3.68c0 0-4.7 1-5.76 4.91 0 0-.47.95-.24 3.7l.16 2a7.52 7.52 0 0 0 1.09 3.51 5.49 5.49 0 0 0 1.8 1.5s2.49 1 4 1.57a2.7 2.7 0 0 1 1.46 2.53s0 1.88-1.33 2.26c0 0-1.25.33-1.4-1.48l-.17-2.13-5 1.64.25 3.11s.34 6 6.8 3.81c0 0 6.08-1.88 5.87-8.15l-.2-2.49s-.09-3.86-2.6-5.11M1016.85 432.66l-.49 14.75-.39.13-2.77-13.64-8.48 2.56 1.77 26.24 5.02-1.69-1.58-19.55.4-.13 4.26 18.64 5.17-1.74.96-20.12.34-.1 1.7 19.21 4.83-1.63-2.61-25.38-8.13 2.45zM986.39 441.97l-1.21 27.89 5.7-1.92.29-21.28.47-.14 3.83 19.87 5.55-1.87-5.68-25.25-8.95 2.7zM1091.35 420.86l.25 3.43 1.1-.35.27 3.67c.13 1.79-.88 2.16-.88 2.16-1.23.41-1.31-1.32-1.31-1.32l-.93-12.75a1.67 1.67 0 0 1 1-1.72c1-.32 1.17 1.24 1.17 1.24l.14 1.93 4-1.25c-.14-3.79-.7-4.55-.7-4.55-1.24-3.1-5-1.78-5-1.78-5.89 1.77-4.73 8.42-4.73 8.42l.91 12.4c.6 6.35 6.31 3.75 6.4 3.71a6.88 6.88 0 0 0 3.17-2.76 5.53 5.53 0 0 0 .74-2.18 17.63 17.63 0 0 0 .06-2.76l-.52-7.17zM1077.97 429.06l-.18.06-5.39-13.22-5.23 1.58 1.84 24.14 4.23-1.43-1.35-14.5.19-.06 5.55 13.08 4.91-1.65-1.75-23.69-4.2 1.27 1.38 14.42zM1058 439.09s.22 2-1.07 2.41c0 0-1.36.56-1.52-1.51l-1.45-18.5L1049 423l1.45 18.48s0 7.14 6.87 4.83a8.14 8.14 0 0 0 5.33-8.52l-1.42-18.49-4.7 1.42zM976.18 457.83a14.59 14.59 0 0 0-2.59-.89s-3.06-.81-3.71-1.46a2.69 2.69 0 0 1-.74-2.82 2 2 0 0 1 1.39-1.5 1.35 1.35 0 0 1 1.72 1.27l.21 2.32L978 453l-.31-3.39s-.07-5.69-7.06-3.84a10.89 10.89 0 0 0-1.31.4s-4.27 1.59-5.55 5.08v.07s-.56 1.05-.29 4l.19 2.16a7.51 7.51 0 0 0 1.31 3.8 6.14 6.14 0 0 0 2.15 1.58l4.74 1.58a2.86 2.86 0 0 1 1.74 2.71s0 2.05-1.58 2.51c0 0-1.5.41-1.67-1.57l-.21-2.32-6 2 .31 3.4s.41 6.54 8.12 3.93c0 0 7.24-2.26 7-9.09l-.24-2.71s-.11-4.21-3.11-5.49"/><path class="8e6e45bf-bca7-4a75-9f21-344e97bf944c" d="M956.07 443.35l143.97-42.09 2.47 34.45-142.65 49.28-3.79-41.64z"/><path d="M653.55 663s56.63-9.5 75.63-12.5 18.67 11.67 18.67 11.67v84.33s2.33 8.33-9.67 14-34.33 13.67-49.67 16-35 1.67-35 1.67l-25.64 13.33-41 2.67-5-124.33z"/><path class="f22e069c-93c8-4466-a5bb-9b2c45eba566" d="M563 644s-2.5 27.5 0 75 7 82 7 82 32.44-1 55.67-5.17c22.33-4 27.87-6.34 27.87-6.34l-.06-11.33s-24.78 6.14-31.7 7.14c-3.66.53-11.77 1.46-18.58 2.23-6 .67-10.27-3.91-10.46-9.93l-2.87-91.51c-.2-6.46 3.68-11.95 10.11-12.5 9.61-.82 23.06-2.12 31.52-3.6 14.73-2.57 22-7 22-7l-1-25s-26.5 9-50 9C575.52 647 563 644 563 644z"/><path class="26758d3b-42f4-4e7d-bca5-57705ac7c204" d="M663.06 661.45a23 23 0 0 1 8.34-.15 26.06 26.06 0 0 1 4.13 1 22.41 22.41 0 0 1 3.92 1.8 19.75 19.75 0 0 1 6.45 5.9 20.37 20.37 0 0 1 2.08 3.91 23.79 23.79 0 0 1 1.18 4.23 19.72 19.72 0 0 1 .31 2.16l.11 1.08.06 1 .22 4.11.3 8.19c.18 5.46.31 10.91.43 16.37q.29 16.36.43 32.72c.06 5.45 0 10.91.05 16.36s0 10.9 0 16.36h-5l.11-32.69q.13-16.35.15-32.69v-16.33l-.07-8.16-.08-4.06v-1l-.06-1a16.64 16.64 0 0 0-.2-1.9 20.54 20.54 0 0 0-.88-3.67 17.25 17.25 0 0 0-1.63-3.35 16.83 16.83 0 0 0-5.33-5.24 30.53 30.53 0 0 0-7.09-3.17 59.72 59.72 0 0 0-7.93-1.78z"/><path class="a7d749f3-bfce-462d-aa86-b93a64a78543" d="M1301.23 564.15a2.5 2.5 0 0 1-2.46-2.54l1.23-90.11a2.5 2.5 0 0 1 2.5-2.46 2.5 2.5 0 0 1 2.46 2.54l-1.29 90.11a2.5 2.5 0 0 1-2.44 2.46zM1292.23 567.15a2.5 2.5 0 0 1-2.46-2.54l1.23-90.11a2.5 2.5 0 0 1 2.5-2.46 2.5 2.5 0 0 1 2.46 2.54l-1.29 90.11a2.5 2.5 0 0 1-2.44 2.46zM1284.23 569.15a2.5 2.5 0 0 1-2.46-2.54l1.23-90.11a2.5 2.5 0 0 1 2.5-2.46 2.5 2.5 0 0 1 2.46 2.54l-1.29 90.11a2.5 2.5 0 0 1-2.44 2.46z"/><path class="f22e069c-93c8-4466-a5bb-9b2c45eba566" d="M726 739.6l-16.52 5.83a8.74 8.74 0 0 1-11.65-8.24V705.9a8.74 8.74 0 0 1 6-8.32l21-6.78a5.35 5.35 0 0 1 7 5.09v35.46a8.74 8.74 0 0 1-5.83 8.25z"/><path class="7db4f9cd-ccaf-49e3-b8c5-6caf459d68cf" d="M883.71 375.74c-15.53 0-27.43-6.35-30.3-16.19-4.1-14 10.8-30.75 33.21-37.3a63.45 63.45 0 0 1 17.76-2.62c15.53 0 27.43 6.35 30.3 16.19 4.1 14-10.8 30.76-33.21 37.3a63.45 63.45 0 0 1-17.76 2.62z"/><path class="326ee0eb-dc59-4c20-a119-c90052b01ae0" d="M904.39 321.13c14.85 0 26.18 5.93 28.86 15.11 1.8 6.16-.39 13.19-6.15 19.79-6.09 7-15.34 12.53-26 15.65a61.94 61.94 0 0 1-17.34 2.56c-14.85 0-26.18-5.93-28.86-15.11-1.8-6.16.39-13.19 6.15-19.79 6.09-7 15.34-12.53 26-15.65a61.94 61.94 0 0 1 17.34-2.56m0-3a65.2 65.2 0 0 0-18.19 2.68C863 327.6 847.64 345.14 852 360c3.17 10.86 16 17.27 31.74 17.27a65.2 65.2 0 0 0 18.19-2.68c23.24-6.79 38.56-24.32 34.23-39.16-3.17-10.86-16-17.27-31.74-17.27z"/><path class="326ee0eb-dc59-4c20-a119-c90052b01ae0" d="M883.71 378.74H883a1.5 1.5 0 0 1 0-3h.67c1 0 2.1 0 3.15-.09a1.52 1.52 0 0 1 1.58 1.42 1.5 1.5 0 0 1-1.42 1.58c-1.06.06-2.18.09-3.27.09zm-9.4-.82h-.27c-1.34-.24-2.66-.54-3.94-.89a1.5 1.5 0 1 1 .79-2.89c1.19.33 2.42.61 3.68.83a1.5 1.5 0 0 1-.27 3zm21.34-.35a1.5 1.5 0 0 1-.28-3c1.23-.24 2.49-.52 3.73-.83a1.5 1.5 0 0 1 .74 2.91c-1.29.33-2.6.62-3.89.87zm12.17-3.57a1.5 1.5 0 0 1-.55-2.9c1.19-.47 2.37-1 3.51-1.5a1.5 1.5 0 0 1 1.26 2.72 70.99 70.99 0 0 1-3.67 1.57 1.49 1.49 0 0 1-.55.11zm-45.44-.26a1.49 1.49 0 0 1-.74-.2 28.93 28.93 0 0 1-3.43-2.28 1.5 1.5 0 1 1 1.84-2.37 26.06 26.06 0 0 0 3.07 2 1.5 1.5 0 0 1-.74 2.8zm56.71-5.51a1.5 1.5 0 0 1-.82-2.76c1.07-.7 2.12-1.43 3.11-2.18a1.5 1.5 0 1 1 1.81 2.39c-1 .79-2.15 1.57-3.28 2.3a1.49 1.49 0 0 1-.82.28zM853.43 365a1.5 1.5 0 0 1-1.32-.79 19.87 19.87 0 0 1-1.58-3.84 1.52 1.52 0 0 1 1-1.88 1.48 1.48 0 0 1 1.85 1 16.82 16.82 0 0 0 1.34 3.26 1.5 1.5 0 0 1-1.32 2.21zm75.35-4.9a1.5 1.5 0 0 1-1.11-2.51c.86-.94 1.66-1.92 2.39-2.89a1.5 1.5 0 1 1 2.41 1.79 41.11 41.11 0 0 1-2.58 3.13 1.5 1.5 0 0 1-1.1.51zm-77.22-7.4h-.27a1.5 1.5 0 0 1-1.21-1.74 24.69 24.69 0 0 1 1.09-4 1.5 1.5 0 0 1 2.82 1 21.64 21.64 0 0 0-1 3.52 1.5 1.5 0 0 1-1.42 1.25zm83.92-3.28a1.5 1.5 0 0 1-1.41-2 21.7 21.7 0 0 0 1-3.51 1.5 1.5 0 1 1 3 .54 24.78 24.78 0 0 1-1.1 4 1.5 1.5 0 0 1-1.48 1.01zm-78.7-8.16a1.5 1.5 0 0 1-1.2-2.39c.78-1.06 1.65-2.11 2.57-3.13a1.5 1.5 0 0 1 2.22 2c-.86.95-1.66 1.92-2.39 2.9a1.5 1.5 0 0 1-1.19.66zm79.37-4.26a1.5 1.5 0 0 1-1.44-1.09v-.08a16.85 16.85 0 0 0-1.37-3.31 1.5 1.5 0 0 1 2.64-1.43 19.86 19.86 0 0 1 1.61 3.89v.11a1.5 1.5 0 0 1-1.44 1.91zm-70.39-4.61a1.5 1.5 0 0 1-.91-2.7c1-.79 2.15-1.57 3.28-2.31a1.5 1.5 0 0 1 1.64 2.51c-1.08.7-2.12 1.44-3.11 2.18a1.5 1.5 0 0 1-.89.32zm63.15-5.67a1.49 1.49 0 0 1-.92-.31 26 26 0 0 0-3.07-2 1.5 1.5 0 0 1 1.48-2.61 29 29 0 0 1 3.43 2.27 1.5 1.5 0 0 1-.92 2.69zm-52.28-.83A1.5 1.5 0 0 1 876 323a70.99 70.99 0 0 1 3.67-1.57 1.5 1.5 0 0 1 1.1 2.79c-1.19.47-2.37 1-3.51 1.5a1.5 1.5 0 0 1-.62.18zm11.94-4.23a1.5 1.5 0 0 1-.37-3c1.29-.33 2.6-.62 3.89-.87a1.5 1.5 0 1 1 .57 2.95c-1.23.24-2.49.52-3.73.83a1.51 1.51 0 0 1-.35.1zm29-.37a1.5 1.5 0 0 1-.4-.05c-1.18-.32-2.42-.6-3.68-.83a1.5 1.5 0 0 1 .53-3c1.34.24 2.67.54 3.94.89a1.5 1.5 0 0 1-.39 2.95zm-16.45-1.57a1.5 1.5 0 0 1-.08-3c1.13-.06 2.26-.09 3.37-.09h.59a1.5 1.5 0 0 1 1.49 1.51 1.52 1.52 0 0 1-1.51 1.49h-.61c-1 0-2.13 0-3.2.09z"/><path class="7db4f9cd-ccaf-49e3-b8c5-6caf459d68cf" d="M894.71 380.74c-15.53 0-27.43-6.35-30.3-16.19-4.1-14 10.8-30.75 33.21-37.3a63.45 63.45 0 0 1 17.76-2.62c15.53 0 27.43 6.35 30.3 16.19 4.1 14-10.8 30.76-33.21 37.3a63.45 63.45 0 0 1-17.76 2.62z"/><path class="326ee0eb-dc59-4c20-a119-c90052b01ae0" d="M915.39 326.13c14.85 0 26.18 5.93 28.86 15.11 1.8 6.16-.39 13.19-6.15 19.79-6.09 7-15.34 12.53-26 15.65a61.94 61.94 0 0 1-17.34 2.56c-14.85 0-26.18-5.93-28.86-15.11-1.8-6.16.39-13.19 6.15-19.79 6.09-7 15.34-12.53 26-15.65a61.94 61.94 0 0 1 17.34-2.56m0-3a65.2 65.2 0 0 0-18.19 2.68C874 332.6 858.64 350.14 863 365c3.17 10.86 16 17.27 31.74 17.27a65.2 65.2 0 0 0 18.19-2.68c23.24-6.79 38.56-24.32 34.23-39.16-3.17-10.86-16-17.27-31.74-17.27z"/><path class="326ee0eb-dc59-4c20-a119-c90052b01ae0" d="M894.71 383.74H894a1.5 1.5 0 0 1 0-3h.65c1 0 2.1 0 3.15-.09a1.52 1.52 0 0 1 1.58 1.42 1.5 1.5 0 0 1-1.42 1.58c-1.04.06-2.16.09-3.25.09zm-9.4-.82h-.27c-1.34-.24-2.66-.54-3.94-.89a1.5 1.5 0 1 1 .79-2.89c1.19.33 2.42.61 3.68.83a1.5 1.5 0 0 1-.27 3zm21.34-.35a1.5 1.5 0 0 1-.28-3c1.23-.24 2.49-.52 3.73-.83a1.5 1.5 0 0 1 .74 2.91c-1.29.33-2.6.62-3.89.87zm12.17-3.57a1.5 1.5 0 0 1-.55-2.9c1.19-.47 2.37-1 3.51-1.5a1.5 1.5 0 0 1 1.26 2.72 70.99 70.99 0 0 1-3.67 1.57 1.49 1.49 0 0 1-.55.11zm-45.44-.26a1.49 1.49 0 0 1-.74-.2 28.93 28.93 0 0 1-3.43-2.28 1.5 1.5 0 1 1 1.84-2.37 26.06 26.06 0 0 0 3.07 2 1.5 1.5 0 0 1-.74 2.8zm56.71-5.51a1.5 1.5 0 0 1-.82-2.76c1.07-.7 2.12-1.43 3.11-2.18a1.5 1.5 0 1 1 1.81 2.39c-1 .79-2.15 1.57-3.28 2.3a1.49 1.49 0 0 1-.82.28zM864.43 370a1.5 1.5 0 0 1-1.32-.79 19.87 19.87 0 0 1-1.58-3.84 1.52 1.52 0 0 1 1-1.88 1.48 1.48 0 0 1 1.85 1 16.82 16.82 0 0 0 1.34 3.26 1.5 1.5 0 0 1-1.32 2.21zm75.35-4.9a1.5 1.5 0 0 1-1.11-2.51c.86-.94 1.66-1.92 2.39-2.89a1.5 1.5 0 1 1 2.41 1.79 41.11 41.11 0 0 1-2.58 3.13 1.5 1.5 0 0 1-1.1.51zm-77.22-7.4h-.27a1.5 1.5 0 0 1-1.21-1.74 24.69 24.69 0 0 1 1.09-4 1.5 1.5 0 0 1 2.82 1 21.64 21.64 0 0 0-1 3.52 1.5 1.5 0 0 1-1.42 1.25zm83.92-3.28a1.5 1.5 0 0 1-1.41-2 21.7 21.7 0 0 0 1-3.51 1.5 1.5 0 1 1 3 .54 24.78 24.78 0 0 1-1.1 4 1.5 1.5 0 0 1-1.48 1.01zm-78.7-8.16a1.5 1.5 0 0 1-1.2-2.39c.78-1.06 1.65-2.11 2.57-3.13a1.5 1.5 0 0 1 2.22 2c-.86.95-1.66 1.92-2.39 2.9a1.5 1.5 0 0 1-1.19.66zm79.37-4.26a1.5 1.5 0 0 1-1.44-1.09v-.08a16.85 16.85 0 0 0-1.37-3.31 1.5 1.5 0 0 1 2.64-1.43 19.86 19.86 0 0 1 1.61 3.89v.11a1.5 1.5 0 0 1-1.44 1.91zm-70.39-4.61a1.5 1.5 0 0 1-.91-2.7c1-.79 2.15-1.57 3.28-2.31a1.5 1.5 0 0 1 1.64 2.51c-1.08.7-2.12 1.44-3.11 2.18a1.5 1.5 0 0 1-.89.32zm63.15-5.67a1.49 1.49 0 0 1-.92-.31 26 26 0 0 0-3.07-2 1.5 1.5 0 0 1 1.48-2.61 29 29 0 0 1 3.43 2.27 1.5 1.5 0 0 1-.92 2.69zm-52.28-.83A1.5 1.5 0 0 1 887 328a70.99 70.99 0 0 1 3.67-1.57 1.5 1.5 0 0 1 1.1 2.79c-1.19.47-2.37 1-3.51 1.5a1.5 1.5 0 0 1-.62.18zm11.94-4.23a1.5 1.5 0 0 1-.37-3c1.29-.33 2.6-.62 3.89-.87a1.5 1.5 0 1 1 .57 2.95c-1.23.24-2.49.52-3.73.83a1.51 1.51 0 0 1-.35.1zm29-.37a1.5 1.5 0 0 1-.4-.05c-1.18-.32-2.42-.6-3.68-.83a1.5 1.5 0 0 1 .53-3c1.34.24 2.67.54 3.94.89a1.5 1.5 0 0 1-.39 2.95zm-16.45-1.57a1.5 1.5 0 0 1-.08-3c1.13-.06 2.26-.09 3.37-.09h.59a1.5 1.5 0 0 1 0 3h-.62c-1 0-2.13 0-3.2.09z"/><path d="M854.52 335.79s-11.5 2.75-11.5 5.75 12.5 10.5 44 1.5c0 0 42.25-13.5 51-16s8-6 0-8.25c-9.13-2.57-15.21-1.56-15.21-1.56l27-7.94 94.19 38.22-197 59.25-53-59.85z"/><path d="M846.88 407.33l-53.82-60.75.87-.16 60.5-11.12.21 1c-4.62 1.1-11.12 3.47-11.12 5.26 0 .36.35 1 1.35 1.77 5 3.77 19 5.83 42-.75.41-.13 42.34-13.53 51-16 5.35-1.53 5.92-3.06 5.92-3.64 0-1.24-2.22-2.6-5.92-3.65-8.9-2.5-14.94-1.56-15-1.55l-.22-1 27.13-8 .16.07 95.59 38.76-1.36.41zM795 347.24l52.22 58.95 195.33-58.75-92.8-37.62-22.82 6.72a45.71 45.71 0 0 1 11.23 1.77c4.35 1.22 6.65 2.82 6.65 4.61s-2.23 3.34-6.65 4.6c-8.64 2.47-50.56 15.86-51 16-23.39 6.68-37.73 4.5-42.91.59a3.63 3.63 0 0 1-1.75-2.57c0-1.48 2.07-2.81 4.51-3.86zM534.4 794.08a9.67 9.67 0 0 1-10.19-9.08l-7.15-129.13a9.67 9.67 0 0 1 9.12-10.19 9.67 9.67 0 0 1 10.19 9.12s1.21 48.52 2.65 74.53 4.5 54.61 4.5 54.61a9.67 9.67 0 0 1-9.12 10.14z"/><path class="f05dc078-6bcc-44c6-a1d2-6f9b5ad643f5" d="M518.17 779.37l-4.66-49a64.44 64.44 0 0 0 1.13-11.77 27.06 27.06 0 0 0-1.77-10.29l-.28-52.2c0-8.81 12.47-6.48 12.53 6.7 0 0 .77 25.6 1.73 50.88 2.79 4.49 3.44 16.37 1 21.87 1.35 24.4 3.44 43.85 3.44 43.85 1.83 14.7-13.08 14.38-13.12-.04z"/><path class="028ee0b8-3de6-47c4-9104-fc2a751c7c13" d="M714.67 736.51l-8 2.65a3.7 3.7 0 0 1-4.86-3.51l-.09-28.5a3.7 3.7 0 0 1 2.54-3.53l8-2.65a3.7 3.7 0 0 1 4.86 3.51l.09 28.5a3.7 3.7 0 0 1-2.54 3.53z"/><path class="d36f7b64-2e00-4010-b7a2-22b10d3bdd63" d="M715.49 735.45A1.5 1.5 0 0 1 714 734v-29.91a1.5 1.5 0 0 1 3 0V734a1.5 1.5 0 0 1-1.51 1.45zM710.49 737.45A1.5 1.5 0 0 1 709 736v-29.91a1.5 1.5 0 0 1 3 0V736a1.5 1.5 0 0 1-1.51 1.45zM705.49 739.45A1.5 1.5 0 0 1 704 738v-29.91a1.5 1.5 0 0 1 3 0V738a1.5 1.5 0 0 1-1.51 1.45z"/><path d="M516.46 766.23l10.06 2.68-5.69 12-4.37-14.68zM513.07 670.37l8.94 1.92-5.05-16.61-3.89 14.69z"/><path class="f22e069c-93c8-4466-a5bb-9b2c45eba566" d="M305 642s-4-52 0-81.5 22.92-61.28 60.13-42.5c38.13 19.25 57.88 38 63 113.79 4.54 67.5 6.9 71.21 6.9 97.71s6 80-29 60.77-40.5-23.27-52-34.77S311.52 700.54 305 642z"/><path d="M410 529.93a9.88 9.88 0 0 1-3.33-.57c-3.9-1.39-6.7-5.19-7.91-10.7-1.24-5.69-.63-12.46 1.72-19.07 4.07-11.43 12.6-19.73 20.29-19.73a9.88 9.88 0 0 1 3.33.57c3.9 1.39 6.71 5.19 7.91 10.7 1.24 5.69.63 12.46-1.72 19.07-4.07 11.43-12.6 19.73-20.29 19.73z"/><path class="326ee0eb-dc59-4c20-a119-c90052b01ae0" d="M420.78 480.85a8.89 8.89 0 0 1 3 .51c7.57 2.69 10.12 15.74 5.58 28.5-3.93 11-12.07 19.07-19.34 19.07a8.89 8.89 0 0 1-3-.51c-7.57-2.69-10.12-15.74-5.58-28.5 3.93-11 12.07-19.07 19.34-19.07m0-2c-8 0-16.91 8.26-21.23 20.4-5 14-2 27.94 6.8 31.05a10.86 10.86 0 0 0 3.66.62c8 0 16.91-8.26 21.23-20.4 5-14 2-27.94-6.8-31.05a10.86 10.86 0 0 0-3.66-.62z"/><path d="M342.47 495.94a8.61 8.61 0 0 1-3.18-.59c-3.5-1.38-5.9-5-6.75-10.33-.88-5.47 0-11.95 2.48-18.25 4.24-10.76 12.42-18.56 19.45-18.56a8.61 8.61 0 0 1 3.18.59c3.5 1.38 5.9 5 6.75 10.33.88 5.47 0 11.95-2.48 18.25-4.24 10.75-12.42 18.56-19.45 18.56z"/><path class="326ee0eb-dc59-4c20-a119-c90052b01ae0" d="M354.47 449.21a7.62 7.62 0 0 1 2.81.52c3.16 1.24 5.33 4.64 6.13 9.56.86 5.29 0 11.59-2.42 17.72-4.1 10.39-11.88 17.93-18.52 17.93a7.62 7.62 0 0 1-2.81-.52c-3.16-1.24-5.33-4.64-6.13-9.56-.86-5.29 0-11.59 2.42-17.72 4.1-10.39 11.88-17.93 18.52-17.93m0-2c-7.34 0-15.86 7.74-20.38 19.2-5.27 13.37-3.11 26.74 4.84 29.87a9.59 9.59 0 0 0 3.54.66c7.34 0 15.86-7.74 20.38-19.2 5.27-13.37 3.15-26.74-4.85-29.87a9.59 9.59 0 0 0-3.54-.66z"/><path class="7db4f9cd-ccaf-49e3-b8c5-6caf459d68cf" d="M406.94 523.44a5.15 5.15 0 0 1-1.27-.16c-2.24-.57-4-2.65-5-5.86a23 23 0 0 1 .05-12.08c2-7.74 7-13.58 11.62-13.58a5.15 5.15 0 0 1 1.27.16c4.83 1.23 7.09 9.44 4.94 17.94-1.95 7.74-6.95 13.58-11.61 13.58z"/><path class="326ee0eb-dc59-4c20-a119-c90052b01ae0" d="M412.36 493.27a3.66 3.66 0 0 1 .9.11c1.69.43 3.12 2.19 3.93 4.84a21.77 21.77 0 0 1-.07 11.27c-2 7.79-6.72 12.44-10.17 12.44a3.66 3.66 0 0 1-.9-.11c-3.53-.89-6-7.73-3.85-16.12 2-7.79 6.72-12.44 10.17-12.44m0-3c-5.29 0-10.9 6.14-13.08 14.71-2.4 9.46.3 18.31 6 19.76a6.64 6.64 0 0 0 1.64.2c5.29 0 10.9-6.14 13.08-14.71 2.4-9.46-.3-18.31-6-19.76a6.64 6.64 0 0 0-1.64-.2z"/><path class="7db4f9cd-ccaf-49e3-b8c5-6caf459d68cf" d="M342.66 487.51a5.28 5.28 0 0 1-1.94-.36c-2.15-.85-3.65-3.14-4.21-6.45a23 23 0 0 1 1.59-12c2.75-7 8-12 12.54-12a5.28 5.28 0 0 1 1.94.36c4.64 1.83 5.84 10.26 2.62 18.42-2.75 6.97-8.02 12.03-12.54 12.03z"/><path class="326ee0eb-dc59-4c20-a119-c90052b01ae0" d="M350.64 458.2a3.73 3.73 0 0 1 1.39.26c3.39 1.33 4.95 8.43 1.78 16.47-2.81 7.2-7.86 11.07-11.15 11.07a3.73 3.73 0 0 1-1.39-.26c-3.39-1.34-4.95-8.43-1.78-16.48 2.84-7.2 7.86-11.09 11.15-11.09m0-3c-5.06 0-10.88 5.22-13.94 13-3.58 9.08-2 18.2 3.47 20.37a6.75 6.75 0 0 0 2.49.47c5.06 0 10.88-5.22 13.94-13 3.58-9.08 2-18.2-3.47-20.37a6.75 6.75 0 0 0-2.49-.47z"/><path class="adcb31bb-20f2-4f6d-b468-76342b85a356" d="M75.18 263.2s125.33 124 148 139.33c28.08 19 34 13 46.67 18.25s4 25.08 0 44.42-23 97.33-27.52 117.33-17.08 15.92-40.08 5.26-61.07-58.59-94.4-99.92-42.67-50.64-42.67-50.64z"/><path class="62efbf2f-879f-4d5b-98f5-984d621743c7" d="M6.52 189S11 174 19 186s62 88.5 62 88.5 7.88 9.25 6 37c-1.71 25.26-8.22 99.09-11.07 132.38a5.62 5.62 0 0 1-10.34 2.52l-55.47-87.73A65.37 65.37 0 0 1 .1 320z"/><path d="M13 200h-.1a2 2 0 0 1-1.9-2.09l.38-7.86 4.5 6.46a2 2 0 0 1-1.74 3.14A2 2 0 0 1 13 200zM72.3 431.78h-.15a2 2 0 0 1-1.85-2.14l.28-3.89a2 2 0 1 1 4 .29l-.28 3.89a2 2 0 0 1-2 1.85zm.91-12.65h-.15a2 2 0 0 1-1.85-2.13l.28-3.89a2 2 0 0 1 2.14-1.85 2 2 0 0 1 1.85 2.14l-.28 3.89a2 2 0 0 1-1.99 1.84zm.91-12.65H74a2 2 0 0 1-1.85-2.14l.28-3.89a2 2 0 1 1 4 .29l-.28 3.89a2 2 0 0 1-2.03 1.85zm.88-12.66h-.15a2 2 0 0 1-1.85-2.14l.28-3.89a2 2 0 1 1 4 .29L77 392a2 2 0 0 1-2 1.82zm.91-12.65h-.11A2 2 0 0 1 74 379l.28-3.89a2 2 0 1 1 4 .29l-.28 3.89a2 2 0 0 1-2.05 1.88zm.91-12.65h-.15a2 2 0 0 1-1.85-2.14l.28-3.89a2 2 0 1 1 4 .29l-.28 3.89a2 2 0 0 1-1.96 1.85zm.91-12.65h-.15a2 2 0 0 1-1.85-2.14l.28-3.89a2 2 0 1 1 4 .29l-.24 3.87a2 2 0 0 1-2 1.87zm.91-12.65h-.15a2 2 0 0 1-1.85-2.14l.28-3.89a2 2 0 1 1 4 .29l-.28 3.89a2 2 0 0 1-1.95 1.84zm.91-12.65h-.15a2 2 0 0 1-1.85-2.14l.28-3.89a2 2 0 1 1 4 .29l-.28 3.89a2 2 0 0 1-1.95 1.84zm.91-12.65h-.15a2 2 0 0 1-1.85-2.14l.28-3.89a2 2 0 1 1 4 .29l-.28 3.89a2 2 0 0 1-1.95 1.84zm.91-12.65h-.15a2 2 0 0 1-1.85-2.14l.28-3.89a2 2 0 1 1 4 .29l-.28 3.89a2 2 0 0 1-1.94 1.84zm-1.95-11.87a2 2 0 0 1-1.64-.86l-2.23-3.2a2 2 0 1 1 3.34-2.34l2.23 3.2a2 2 0 0 1-1.64 3.14zM72.23 283a2 2 0 0 1-1.64-.86l-2.23-3.2a2 2 0 0 1 3.28-2.29l2.23 3.2a2 2 0 0 1-1.64 3.15zM65 272.56a2 2 0 0 1-1.64-.86l-2.23-3.2a2 2 0 0 1 3.28-2.29l2.23 3.2a2 2 0 0 1-1.64 3.15zm-7.25-10.41a2 2 0 0 1-1.64-.86l-2.23-3.2a2 2 0 0 1 3.28-2.29l2.23 3.2a2 2 0 0 1-1.64 3.14zm-7.25-10.41a2 2 0 0 1-1.64-.86l-2.23-3.2a2 2 0 0 1 3.28-2.29l2.23 3.2a2 2 0 0 1-1.64 3.14zm-7.25-10.41a2 2 0 0 1-1.64-.86l-2.23-3.2a2 2 0 0 1 3.28-2.27l2.23 3.2a2 2 0 0 1-1.64 3.14zM36 230.92a2 2 0 0 1-1.64-.86l-2.23-3.2a2 2 0 1 1 3.28-2.29l2.23 3.2a2 2 0 0 1-1.64 3.15zm-7.25-10.42a2 2 0 0 1-1.64-.86l-2.23-3.2a2 2 0 0 1 3.28-2.29l2.23 3.2a2 2 0 0 1-1.64 3.14zm-7.25-10.41a2 2 0 0 1-1.64-.86L17.64 206a2 2 0 0 1 3.28-2.29l2.23 3.2a2 2 0 0 1-1.64 3.14zM73.09 446.49L68.74 440a2 2 0 0 1 .55-2.77 2.06 2.06 0 0 1 1.26-.33 2 2 0 0 1 3.11 1.81zM65.32 433.26a2 2 0 0 1-1.66-.89L61.39 429a2 2 0 1 1 3.33-2.22l2.28 3.37a2 2 0 0 1-1.66 3.11zm-7.35-11a2 2 0 0 1-1.66-.89L54 418a2 2 0 1 1 3.33-2.22l2.26 3.38a2 2 0 0 1-1.59 3.1zm-7.35-11a2 2 0 0 1-1.66-.89L46.69 407a2 2 0 1 1 3.31-2.24l2.26 3.38a2 2 0 0 1-1.66 3.11zm-7.35-11a2 2 0 0 1-1.66-.89L39.34 396a2 2 0 1 1 3.33-2.22l2.26 3.38a2 2 0 0 1-1.66 3.11zm-7.35-11a2 2 0 0 1-1.66-.89L32 385a2 2 0 1 1 3.33-2.22l2.26 3.38a2 2 0 0 1-1.66 3.11zm-7.35-11a2 2 0 0 1-1.66-.89L24.63 374a2 2 0 1 1 3.37-2.24l2.26 3.38a2 2 0 0 1-1.66 3.11zm-7.35-11a2 2 0 0 1-1.66-.89L17.28 363a2 2 0 1 1 3.33-2.22l2.26 3.38a2 2 0 0 1-1.66 3.11zm-7.35-11a2 2 0 0 1-1.66-.89L9.93 352a2 2 0 1 1 3.33-2.22l2.26 3.38a2 2 0 0 1-1.66 3.11zm-7.35-11a2 2 0 0 1-1.66-.89L4 343.1l.19-3.86a2 2 0 0 1 2.09-1.9 2 2 0 0 1 1.9 2.09L8 342l.11.17a2 2 0 0 1-1.66 3.11zm.12-13.07h-.1a2 2 0 0 1-1.9-2.09l.2-4.07a2 2 0 1 1 4 .19l-.2 4.07a2 2 0 0 1-2.02 1.9zM7.26 319h-.1a2 2 0 0 1-1.9-2.09l.2-4.07a2 2 0 1 1 4 .19l-.2 4.07a2 2 0 0 1-2 1.9zm.64-13.21h-.1a2 2 0 0 1-1.9-2.09l.2-4.07a2 2 0 0 1 2.09-1.9 2 2 0 0 1 1.9 2.09l-.2 4.07a2 2 0 0 1-1.99 1.87zm.64-13.22h-.1a2 2 0 0 1-1.9-2.09l.2-4.07a2 2 0 0 1 2.09-1.9 2 2 0 0 1 1.9 2.09l-.2 4.07a2 2 0 0 1-1.99 1.87zm.64-13.21h-.1a2 2 0 0 1-1.9-2.09l.2-4.07a2 2 0 0 1 2.09-1.9 2 2 0 0 1 1.9 2.09l-.2 4.07a2 2 0 0 1-1.99 1.87zm.64-13.22h-.1a2 2 0 0 1-1.9-2.14l.2-4.07a2 2 0 0 1 2.09-1.9 2 2 0 0 1 1.9 2.09l-.2 4.07a2 2 0 0 1-1.99 1.92zm.64-13.21h-.1a2 2 0 0 1-1.9-2.09l.2-4.07a2 2 0 0 1 2.09-1.9 2 2 0 0 1 1.9 2.09l-.2 4.07a2 2 0 0 1-1.99 1.87zm.64-13.22H11a2 2 0 0 1-1.9-2.09l.2-4.07a2 2 0 1 1 4 .19l-.2 4.07a2 2 0 0 1-2 1.87zm.64-13.21h-.1a2 2 0 0 1-1.9-2.09l.2-4.07A2 2 0 0 1 12 218.4a2 2 0 0 1 1.9 2.09l-.2 4.07a2 2 0 0 1-1.96 1.91zm.64-13.22h-.1a2 2 0 0 1-1.9-2.09l.2-4.07a2 2 0 0 1 2.09-1.9 2 2 0 0 1 1.9 2.09l-.2 4.07a2 2 0 0 1-1.99 1.87z"/><path class="7db4f9cd-ccaf-49e3-b8c5-6caf459d68cf" d="M402.68 510.87s10.33 6.5 12.71-1.5c.79-2.66-1.56-5.15-5.74-6.53"/><path class="326ee0eb-dc59-4c20-a119-c90052b01ae0" d="M410.21 514.86c-3.86 0-7.79-2.39-8.32-2.72l1.6-2.54c1.43.89 5.7 3 8.32 2a3.69 3.69 0 0 0 2.15-2.66c.62-2.08-2.19-3.82-4.78-4.68l.94-2.85c5.17 1.71 7.74 4.92 6.71 8.38a6.58 6.58 0 0 1-4 4.62 7.49 7.49 0 0 1-2.62.45z"/><path class="326ee0eb-dc59-4c20-a119-c90052b01ae0" d="M412.3 498.99l-8.78 1.82 5.97 6.7 2.81-8.52z"/><path class="7db4f9cd-ccaf-49e3-b8c5-6caf459d68cf" d="M340.35 467.54l11.17-3.17 2.33 9h-2.17l-3.21 6.33-9.45-4.5 3.33-6.16-2-1.5z"/><path class="326ee0eb-dc59-4c20-a119-c90052b01ae0" d="M349.15 481.69l-12.2-5.81 3.47-6.42-3.42-2.54 15.56-4.41 3.21 12.36h-3.18zm-8.06-7.16l6.71 3.19 3-5.85h1.15l-1.46-5.64-6.78 1.92.61.46z"/><path class="7db4f9cd-ccaf-49e3-b8c5-6caf459d68cf" d="M367.77 648.04v14.5"/><path class="326ee0eb-dc59-4c20-a119-c90052b01ae0" d="M367.77 664a1.5 1.5 0 0 1-1.5-1.5V648a1.5 1.5 0 0 1 3 0v14.5a1.5 1.5 0 0 1-1.5 1.5z"/></g></g></svg>
