<svg version="1.1" id="B18bTHVIwXf" xmlns="http://www.w3.org/2000/svg" xmlns:xlink="http://www.w3.org/1999/xlink" x="0px" y="0px" viewBox="0 0 322 322.5" style="enable-background:new 0 0 322 322.5;" class="mixedreality">
    <style>
        #r15W6B4UwmM{fill: #CA563E;}#HJhb6HVIPmG{fill: #CA563E;}#ryC-pSNUv7M{fill: #F28C68;}#rJlG6SEUvXG{fill: #C6BCBA;}#BJGM6B4UDmz{fill: #DDD5D3;}#S14GaSNUD7f{fill: #C6BCBA;}#H1LM6HEIvXG{fill: #FFFFFF;}#rJwf6S4IwQf{fill: #30241C;}#ryYMpSEID7z{fill: #30241C;}#HJizTBVLPmz{fill: #30241C;}#HkaG6H4UvXG{fill: #30241C;}#SJkXpHNLwXM{fill: #ED4F3E;}#By-7pBEIPQG{fill: #64CDF2;}#r1XQprVLD7f{fill: #30241C;}#B1HmpSE8PXz{fill: #30241C;}#HkPQTrVUPmz{fill: #30241C;}#HyF7arEIvmM{fill: #30241C;}#SJjQ6HVIwmG{fill: #30241C;}#BkTm6rNLDXG{fill: #30241C;}#B1kVpSEIDQf{fill: #30241C;}#SJW4prVIDmf{fill: #30241C;}#HyXVpBVLPmM{fill: #30241C;}#r1r46HVUDXG{fill: #30241C;}#rkvNTS4Lw7z{fill: #30241C;}

	@keyframes BkTm6rNLDXGAnimation {
		0% {
			transform: scale(1, 1);
		}
		50% {
			transform: scale(0.5, 0.5);
		}
		100% {
			transform: scale(1, 1);
		}
	}

	#BkTm6rNLDXG {
		transform-origin: 50% 50% !important;
		animation: BkTm6rNLDXGAnimation infinite 3s linear;
	}



	@keyframes HyXVpBVLPmMAnimation {
		0% {
			transform: scale(1, 1);
		}
		50% {
			transform: scale(0.5, 0.5);
		}
		100% {
			transform: scale(1, 1);
		}
	}

	#HyXVpBVLPmM {
		transform-origin: 50% 50% !important;
		animation: HyXVpBVLPmMAnimation infinite 3s linear;
	}



	@keyframes SJjQ6HVIwmGAnimation {
		0% {
			transform: scale(1, 1);
		}
		50% {
			transform: scale(0.75, 0.75);
		}
		100% {
			transform: scale(1, 1);
		}
	}

	#SJjQ6HVIwmG {
		transform-origin: 50% 50% !important;
		animation: SJjQ6HVIwmGAnimation infinite 3s linear;
	}



	@keyframes B1kVpSEIDQfAnimation {
		0% {
			transform: scale(1, 1);
		}
		50% {
			transform: scale(0.8, 0.8);
		}
		100% {
			transform: scale(1, 1);
		}
	}

	#B1kVpSEIDQf {
		transform-origin: 50% 50% !important;
		animation: B1kVpSEIDQfAnimation infinite 3s linear;
	}
    </style>
    <svg version="1.1" id="B18bTHVIwXf" xmlns="http://www.w3.org/2000/svg" xmlns:xlink="http://www.w3.org/1999/xlink" x="0px" y="0px" viewBox="0 0 322 322.5" style="enable-background:new 0 0 322 322.5;" xml:space="preserve"><g><g><g><path class="st7" d="M20.6,282.9L4.9,318.8h28.3c-1-15.9-6.7-28.1-11.8-36.1C20.9,282.8,20.6,282.9,20.6,282.9z" id="r15W6B4UwmM"/></g><g><path class="st7" d="M303.1,282.9c0,0-0.1,0-0.3-0.1c-5.1,8-10.7,20.2-11.7,36h27.8L303.1,282.9z" id="HJhb6HVIPmG"/></g><g><path class="st8" d="M259.3,268.8c-15.4-6.3-31.4-16-42.7-25.1c-9.7,20.4-30.6,34.6-54.7,34.6c-24.2,0-45-14.1-54.7-34.6&#10;&#9;&#9;&#9;&#9;c-11.3,9.1-27.3,18.8-42.7,25.1C40,278.7,25,282,21.4,282.7c5.1,8,10.8,20.2,11.8,36.1h128.3h0.7H291c1-15.8,6.6-28,11.7-36&#10;&#9;&#9;&#9;&#9;C300.4,282.4,285.1,279.3,259.3,268.8z" id="ryC-pSNUv7M"/></g></g><g><path class="st9" d="M161.8,278.3c24.2,0,45-14.1,54.7-34.6c-9.3-7.5-15.4-14.6-15.4-19c0-9.8,0-47,0-47h-39h-0.7h-39&#10;&#9;&#9;&#9;c0,0,0,37.2,0,47c0,4.4-6.1,11.5-15.4,19C116.8,264.1,137.7,278.3,161.8,278.3z" id="rJlG6SEUvXG"/></g><g><path class="st10" d="M223,91.5c0,0,4.2-2.8,10.7,0c6.5,2.8,8.7,27.4-10.7,35.7c0,0-4,26.3-7.1,38c-3.2,11.7-36,37-54,37&#10;&#9;&#9;&#9;s-50.9-25.3-54-37c-3.2-11.7-7.1-38-7.1-38C81.3,118.9,83.5,94.3,90,91.5c6.5-2.8,10.7,0,10.7,0c0-11,0.6-14.7,8.5-23&#10;&#9;&#9;&#9;c8.6-9,18.7-17.2,30.7-21.2c10.5-3.5,21.3-3.7,32.1-5.1c6.7-0.9,15.8-2.3,22.6-0.2c11.2,3.4,20.8,13.1,25.5,23.7&#10;&#9;&#9;&#9;C221.4,68.6,226.4,89.2,223,91.5z" id="BJGM6B4UDmz"/></g><g><path class="st9" d="M99.9,99.3c0,0,4.7-26.9,24.3-26.9c13.7,0,57.1,0,57.1,0s16.3,1.5,14.8-20.1c0,0,0,19.1,13.7,19.1&#10;&#9;&#9;&#9;s14.8,27.9,14.8,27.9l0,0c0,0,1.1-3.6,4.5-15.7c5.6-19.4,0.2-62.7-33.1-62.7c0,0-2.9-15.7-25.3-15.7s-43.4,6.4-60.3,26.9&#10;&#9;&#9;&#9;C94,52,99.9,99.3,99.9,99.3z" id="S14GaSNUD7f"/></g><g><rect x="93.4" y="83.6" class="st0" width="137.7" height="47" id="H1LM6HEIvXG"/><path class="st5" d="M233,132.6H91.4v-51H233V132.6z M95.3,128.7h133.8V85.5H95.3V128.7z" id="rJwf6S4IwQf"/></g><g><path class="st5" d="M227.7,141h-131v-12.4h131V141z M100.7,137.1h123.1v-4.5H100.7V137.1z" id="ryYMpSEID7z"/></g><g><path class="st5" d="M227.7,85.5h-131V73.2h131V85.5z M100.7,81.6h123.1v-4.5H100.7V81.6z" id="HJizTBVLPmz"/></g><g><path class="st5" d="M69.9,319.3h-3.9V114.9c0-14,11.5-17.6,17.6-17.6h9.8v3.9h-9.8c-0.6,0-13.7,0.2-13.7,13.7V319.3z" id="HkaG6H4UvXG"/></g><g><rect x="101.8" y="92" class="st6" width="7.2" height="7.2" id="SJkXpHNLwXM"/></g><g><rect x="114.9" y="92" class="st2" width="7.2" height="7.2" id="By-7pBEIPQG"/></g><g><rect x="256.1" y="81.6" class="st5" width="62.7" height="3.9" id="r1XQprVLD7f"/></g><g><rect x="256.1" y="97.6" class="st5" width="62.7" height="3.9" id="B1HmpSE8PXz"/></g><g><rect x="256.1" y="113" class="st5" width="62.7" height="3.9" id="HkPQTrVUPmz"/></g><g><rect x="256.1" y="128.7" class="st5" width="32.8" height="3.9" id="HyF7arEIvmM"/></g><g><path class="st5" d="M28.7,54.2c-14,0-25.5-11.4-25.5-25.5S14.7,3.2,28.7,3.2s25.5,11.4,25.5,25.5S42.7,54.2,28.7,54.2z M28.7,7.1&#10;&#9;&#9;&#9;c-11.9,0-21.6,9.7-21.6,21.6s9.7,21.6,21.6,21.6s21.6-9.7,21.6-21.6S40.6,7.1,28.7,7.1z" id="SJjQ6HVIwmG"/></g><g><path class="st5" d="M99.3,54.2c-9.7,0-17.6-7.9-17.6-17.6s7.9-17.6,17.6-17.6c9.7,0,17.6,7.9,17.6,17.6S109,54.2,99.3,54.2z&#10;&#9;&#9;&#9; M99.3,22.8c-7.6,0-13.7,6.2-13.7,13.7s6.2,13.7,13.7,13.7c7.6,0,13.7-6.2,13.7-13.7S106.8,22.8,99.3,22.8z" id="BkTm6rNLDXG"/></g><g><path class="st5" d="M36.5,120.8c-11.9,0-21.6-9.7-21.6-21.6s9.7-21.6,21.6-21.6s21.6,9.7,21.6,21.6S48.4,120.8,36.5,120.8z&#10;&#9;&#9;&#9; M36.5,81.6c-9.7,0-17.6,7.9-17.6,17.6s7.9,17.6,17.6,17.6s17.6-7.9,17.6-17.6S46.3,81.6,36.5,81.6z" id="B1kVpSEIDQf"/></g><g><rect x="20.9" y="26.7" class="st5" width="15.7" height="3.9" id="SJW4prVIDmf"/></g><g><rect x="94.8" y="34.6" class="st5" width="8.8" height="3.9" id="HyXVpBVLPmM"/></g><g><rect x="26.7" y="20.9" class="st5" width="3.9" height="15.7" id="r1r46HVUDXG"/></g><g><path class="st5" d="M31.4,109V90l13.7,9.5L31.4,109z M35.3,97.5v4l2.9-2L35.3,97.5z" id="rkvNTS4Lw7z"/></g></g></svg>
</svg>